<?xml version="1.0" encoding="UTF-8" standalone="no"?>
<!DOCTYPE svg PUBLIC "-//W3C//DTD SVG 1.1//EN" "http://www.w3.org/Graphics/SVG/1.1/DTD/svg11.dtd">
<svg width="100%" height="100%" viewBox="0 0 3508 2481" version="1.1" xmlns="http://www.w3.org/2000/svg" xmlns:xlink="http://www.w3.org/1999/xlink" xml:space="preserve" xmlns:serif="http://www.serif.com/" style="fill-rule:evenodd;clip-rule:evenodd;stroke-linejoin:round;stroke-miterlimit:2;">
    <path d="M-195.79,1495.72C-248.448,1392.56 -272.089,1315.87 -272.089,1315.87L-805.531,-412.042L2325.46,-534.426L4018.44,-442.638L4359.7,1030.17C4359.7,1030.17 4427.59,1625.44 3738.19,1895.48C3048.79,2165.52 3022.81,2318.44 2672.96,2187.9C2323.1,2057.36 2192.56,1650.06 1654.72,1723.17L1631.03,1726.56L1633.87,1713.2C1633.87,1713.2 1304.81,1650.52 1012.31,1718.42C719.815,1786.32 693.699,1739.31 542.227,1556.5C390.756,1373.69 -209.907,1378.91 -209.907,1378.91L-195.79,1495.72Z" style="fill:rgb(255,228,167);"/>
    <g transform="matrix(0.848249,0,0,0.848249,184.369,-60.422)">
        <circle cx="862.146" cy="1176.52" r="335.588" style="fill:rgb(249,209,118);fill-opacity:0.5;"/>
    </g>
    <g transform="matrix(1.29508,-0.491941,0.491941,1.29508,-2162.44,1122.82)">
        <path d="M3697.19,230.132C3697.19,230.132 3251.48,76.92 3258.44,536.557C3265.41,996.195 3390.76,822.09 3362.9,1246.91C3335.05,1671.72 3613.62,1894.58 3968.79,1901.54C4323.97,1908.51 4491.11,1372.26 4491.11,1372.26L4407.53,369.416L3697.19,230.132Z" style="fill:rgb(255,244,220);fill-opacity:0.5;"/>
    </g>
    <path d="M-195.79,1495.72L-209.907,1378.91C-209.907,1378.91 390.756,1373.69 542.227,1556.5C693.699,1739.31 719.815,1786.32 1012.31,1718.42C1304.81,1650.52 1633.87,1713.2 1633.87,1713.2L1631.03,1726.56C1115.99,1803.83 1082.22,2051.82 516.39,2031.25C132.871,2017.3 -90.019,1703.05 -195.79,1495.72Z" style="fill:rgb(255,236,193);"/>
</svg>
