<?xml version="1.0" encoding="UTF-8" standalone="no"?>
<!DOCTYPE svg PUBLIC "-//W3C//DTD SVG 1.1//EN" "http://www.w3.org/Graphics/SVG/1.1/DTD/svg11.dtd">
<svg width="100%" height="100%" viewBox="0 0 3508 2481" version="1.1" xmlns="http://www.w3.org/2000/svg" xmlns:xlink="http://www.w3.org/1999/xlink" xml:space="preserve" xmlns:serif="http://www.serif.com/" style="fill-rule:evenodd;clip-rule:evenodd;stroke-linejoin:round;stroke-miterlimit:2;">
    <path d="M-272.089,1315.87C-272.089,1315.87 -57.998,2010.36 516.39,2031.25C1090.78,2052.13 1116.89,1796.27 1654.72,1723.17C2192.56,1650.06 2323.1,2057.36 2672.96,2187.9C3022.81,2318.44 3048.79,2165.52 3738.19,1895.48C4427.59,1625.44 4359.7,1030.17 4359.7,1030.17L4018.44,-442.638L2325.46,-534.426L-805.531,-412.042L-272.089,1315.87Z" style="fill:rgb(255,228,167);"/>
    <g transform="matrix(0.848249,0,0,0.848249,184.369,-60.422)">
        <circle cx="862.146" cy="1176.52" r="335.588" style="fill:rgb(249,209,118);fill-opacity:0.5;"/>
    </g>
    <g transform="matrix(1.29508,-0.491941,0.491941,1.29508,-2162.44,1122.82)">
        <path d="M3697.19,230.132C3697.19,230.132 3251.48,76.92 3258.44,536.557C3265.41,996.195 3390.76,822.09 3362.9,1246.91C3335.05,1671.72 3613.62,1894.58 3968.79,1901.54C4323.97,1908.51 4491.11,1372.26 4491.11,1372.26L4407.53,369.416L3697.19,230.132Z" style="fill:rgb(255,244,220);fill-opacity:0.5;"/>
    </g>
</svg>
