<?xml version="1.0" encoding="UTF-8" standalone="no"?>
<!DOCTYPE svg PUBLIC "-//W3C//DTD SVG 1.1//EN" "http://www.w3.org/Graphics/SVG/1.1/DTD/svg11.dtd">
<svg width="100%" height="100%" viewBox="0 0 3508 2481" version="1.1" xmlns="http://www.w3.org/2000/svg" xmlns:xlink="http://www.w3.org/1999/xlink" xml:space="preserve" xmlns:serif="http://www.serif.com/" style="fill-rule:evenodd;clip-rule:evenodd;stroke-linecap:round;stroke-linejoin:round;stroke-miterlimit:1.5;">
    <g transform="matrix(1.52802,0,0,1.46954,-590.747,-459.195)">
        <path d="M1587.39,1342.73L1603.97,1389.05C1585.32,1394.36 1565.59,1397.02 1544.77,1397.02C1525.2,1397.02 1506.5,1394.7 1488.66,1390.08L1505.39,1343.35C1517.87,1346.33 1531,1347.82 1544.77,1347.82C1559.98,1347.82 1574.18,1346.12 1587.39,1342.73ZM1439.35,1370.16C1439.09,1370.01 1438.83,1369.87 1438.57,1369.72C1406.57,1351.52 1381.27,1326.22 1362.67,1293.82C1344.07,1261.42 1334.77,1224.82 1334.77,1184.02C1334.77,1143.22 1344.07,1106.52 1362.67,1073.92C1381.27,1041.32 1406.57,1015.92 1438.57,997.719C1470.57,979.519 1505.97,970.419 1544.77,970.419C1589.17,970.419 1628.47,981.419 1662.67,1003.42C1696.87,1025.42 1721.77,1056.42 1737.37,1096.42L1671.97,1096.42C1660.37,1072.02 1643.57,1053.12 1621.57,1039.72C1599.57,1026.32 1573.97,1019.62 1544.77,1019.62C1515.57,1019.62 1489.27,1026.32 1465.87,1039.72C1442.47,1053.12 1424.07,1072.32 1410.67,1097.32C1397.27,1122.32 1390.57,1151.22 1390.57,1184.02C1390.57,1216.82 1397.27,1245.62 1410.67,1270.42C1422.29,1291.93 1437.68,1309.16 1456.83,1322.09L1439.35,1370.16ZM1580.66,1167.82L1749.97,1167.82L1749.97,1209.82C1746.77,1244.22 1735.97,1275.72 1717.57,1304.32C1700.83,1330.33 1679.3,1351.38 1652.97,1367.46L1635.63,1319.57C1639.05,1316.97 1642.36,1314.18 1645.57,1311.22C1671.97,1286.82 1687.37,1253.82 1691.77,1212.22L1596.74,1212.22L1580.66,1167.82Z" style="fill:rgb(255,0,0);fill-rule:nonzero;"/>
    </g>
    <g transform="matrix(1.61899,0,0,1.46954,-922.362,-569.713)">
        <path d="M1587.62,1368.55L1636.78,1368.55L1673.3,1242.98L1628.21,1242.98L1587.62,1368.55Z" style="fill:rgb(255,135,37);"/>
    </g>
    <g transform="matrix(0.901581,0,0,0.867074,514.285,36.6497)">
        <circle cx="1388.38" cy="1434.34" r="655.893" style="fill:none;stroke:rgb(255,133,133);stroke-width:23.55px;"/>
    </g>
    <g transform="matrix(0.836642,0,0,0.804621,608.138,126.23)">
        <circle cx="1388.38" cy="1434.34" r="655.893" style="fill:none;stroke:rgb(255,159,240);stroke-width:25.38px;"/>
    </g>
    <g transform="matrix(0.686509,0,0,0.660234,456.659,491.265)">
        <path d="M961.958,1794.33C1130.12,1794.33 1266.64,1930.85 1266.64,2099.01C1266.64,2267.18 1130.12,2403.7 961.958,2403.7C793.796,2403.7 657.27,2267.18 657.27,2099.01C657.27,1930.85 793.796,1794.33 961.958,1794.33ZM961.958,1946.67C1046.04,1946.67 1114.3,2014.93 1114.3,2099.01C1114.3,2183.09 1046.04,2251.36 961.958,2251.36C877.877,2251.36 809.614,2183.09 809.614,2099.01C809.614,2014.93 877.877,1946.67 961.958,1946.67Z" style="fill:rgb(207,117,117);fill-opacity:0.5;"/>
    </g>
    <g transform="matrix(0.233458,0,0,0.224522,1177.76,1528.26)">
        <path d="M961.958,1794.33C1130.12,1794.33 1266.64,1930.85 1266.64,2099.01C1266.64,2267.18 1130.12,2403.7 961.958,2403.7C793.796,2403.7 657.27,2267.18 657.27,2099.01C657.27,1930.85 793.796,1794.33 961.958,1794.33ZM961.958,1946.67C1046.04,1946.67 1114.3,2014.93 1114.3,2099.01C1114.3,2183.09 1046.04,2251.36 961.958,2251.36C877.877,2251.36 809.614,2183.09 809.614,2099.01C809.614,2014.93 877.877,1946.67 961.958,1946.67Z" style="fill:rgb(230,193,81);fill-opacity:0.5;"/>
    </g>
    <g transform="matrix(0.901581,0,0,0.867074,290.66,169.752)">
        <rect x="2153.09" y="1854.51" width="99.68" height="332.265" style="fill:rgb(81,230,127);fill-opacity:0.5;"/>
    </g>
    <g transform="matrix(0.901581,0,0,0.455504,146.869,1069.76)">
        <rect x="2153.09" y="1854.51" width="99.68" height="332.265" style="fill:rgb(230,168,81);fill-opacity:0.5;"/>
    </g>
    <g transform="matrix(0.901581,0,0,1.23125,425.464,-626.61)">
        <rect x="2153.09" y="1854.51" width="99.68" height="332.265" style="fill:rgb(81,152,230);fill-opacity:0.5;"/>
    </g>
    <g transform="matrix(0.901581,0,0,1.65611,575.246,-1555.7)">
        <rect x="2153.09" y="1854.51" width="99.68" height="332.265" style="fill:rgb(189,81,230);fill-opacity:0.5;"/>
    </g>
    <g transform="matrix(0.901581,0,0,0.867074,255.048,134.54)">
        <path d="M2211.87,412.527L2547.3,412.527C2568.49,412.527 2588.82,421.28 2603.8,436.86C2618.78,452.44 2627.2,473.571 2627.2,495.604C2627.2,626.694 2627.2,866.796 2627.2,866.796" style="fill:none;stroke:rgb(233,144,43);stroke-width:23.55px;"/>
    </g>
    <g transform="matrix(0.492995,0,0,0.474126,1227.66,383.973)">
        <path d="M2211.87,412.527L2481.09,412.527C2519.84,412.527 2557,428.534 2584.41,457.026C2611.81,485.519 2627.2,524.163 2627.2,564.457L2627.2,866.796" style="fill:none;stroke:rgb(229,164,91);stroke-width:43.07px;"/>
    </g>
    <g transform="matrix(0.901581,0,0,0.867074,261.69,349.165)">
        <circle cx="2577.06" cy="908.523" r="23.362" style="fill:rgb(193,81,230);fill-opacity:0.5;"/>
    </g>
    <g transform="matrix(0.901581,0,0,0.867074,-1267.33,349.165)">
        <circle cx="2577.06" cy="908.523" r="23.362" style="fill:rgb(230,81,142);fill-opacity:0.5;"/>
    </g>
    <g transform="matrix(0.901581,0,0,0.867074,204.273,349.165)">
        <circle cx="2577.06" cy="908.523" r="23.362" style="fill:rgb(193,81,230);fill-opacity:0.5;"/>
    </g>
    <g transform="matrix(0.901581,0,0,0.867074,-1324.75,349.165)">
        <circle cx="2577.06" cy="908.523" r="23.362" style="fill:rgb(230,81,142);fill-opacity:0.5;"/>
    </g>
    <g transform="matrix(0.901581,0,0,0.867074,261.69,433.194)">
        <circle cx="2577.06" cy="908.523" r="23.362" style="fill:rgb(193,81,230);fill-opacity:0.5;"/>
    </g>
    <g transform="matrix(0.901581,0,0,0.867074,-1267.33,433.194)">
        <circle cx="2577.06" cy="908.523" r="23.362" style="fill:rgb(230,81,142);fill-opacity:0.5;"/>
    </g>
    <g transform="matrix(0.901581,0,0,0.867074,204.273,433.194)">
        <circle cx="2577.06" cy="908.523" r="23.362" style="fill:rgb(193,81,230);fill-opacity:0.5;"/>
    </g>
    <g transform="matrix(0.901581,0,0,0.867074,-1324.75,433.194)">
        <circle cx="2577.06" cy="908.523" r="23.362" style="fill:rgb(230,81,142);fill-opacity:0.5;"/>
    </g>
    <g transform="matrix(0.901581,0,0,0.867074,261.69,514.822)">
        <circle cx="2577.06" cy="908.523" r="23.362" style="fill:rgb(193,81,230);fill-opacity:0.5;"/>
    </g>
    <g transform="matrix(0.901581,0,0,0.867074,-1267.33,514.822)">
        <circle cx="2577.06" cy="908.523" r="23.362" style="fill:rgb(230,81,142);fill-opacity:0.5;"/>
    </g>
    <g transform="matrix(0.901581,0,0,0.867074,204.273,514.822)">
        <circle cx="2577.06" cy="908.523" r="23.362" style="fill:rgb(193,81,230);fill-opacity:0.5;"/>
    </g>
    <g transform="matrix(0.901581,0,0,0.867074,-1324.75,514.822)">
        <circle cx="2577.06" cy="908.523" r="23.362" style="fill:rgb(230,81,142);fill-opacity:0.5;"/>
    </g>
    <g transform="matrix(0.77536,0,0,0.745684,210.709,153.802)">
        <circle cx="1023.89" cy="499.125" r="54.08" style="fill:rgb(127,230,81);fill-opacity:0.5;"/>
    </g>
    <g transform="matrix(0.77536,0,0,0.745684,356.097,153.802)">
        <circle cx="1023.89" cy="499.125" r="54.08" style="fill:rgb(127,230,81);fill-opacity:0.5;"/>
    </g>
    <g transform="matrix(0.77536,0,0,0.745684,509.873,153.802)">
        <circle cx="1023.89" cy="499.125" r="54.08" style="fill:rgb(127,230,81);fill-opacity:0.5;"/>
    </g>
    <g transform="matrix(0.77536,0,0,0.745684,210.709,276.724)">
        <circle cx="1023.89" cy="499.125" r="54.08" style="fill:rgb(127,230,81);fill-opacity:0.5;"/>
    </g>
    <g transform="matrix(0.77536,0,0,0.745684,354.499,276.724)">
        <circle cx="1023.89" cy="499.125" r="54.08" style="fill:rgb(127,230,81);fill-opacity:0.5;"/>
    </g>
    <g transform="matrix(0.77536,0,0,0.745684,210.709,415.011)">
        <circle cx="1023.89" cy="499.125" r="54.08" style="fill:rgb(127,230,81);fill-opacity:0.5;"/>
    </g>
    <g transform="matrix(0.901581,0,0,0.867074,279.426,169.752)">
        <path d="M1595.88,2016.15L1595.88,2182.28" style="fill:none;stroke:rgb(182,114,216);stroke-opacity:0.55;stroke-width:23.55px;"/>
    </g>
    <g transform="matrix(0.901581,0,0,0.867074,279.426,-1272.34)">
        <path d="M1595.88,2016.15L1595.88,2182.28" style="fill:none;stroke:rgb(114,216,198);stroke-opacity:0.55;stroke-width:23.55px;"/>
    </g>
    <g transform="matrix(0.901581,0,0,0.867074,337.342,169.752)">
        <path d="M1595.88,2016.15L1595.88,2182.28" style="fill:none;stroke:rgb(182,114,216);stroke-opacity:0.55;stroke-width:23.55px;"/>
    </g>
    <g transform="matrix(0.901581,0,0,0.867074,337.342,-1272.34)">
        <path d="M1595.88,2016.15L1595.88,2182.28" style="fill:none;stroke:rgb(114,216,198);stroke-opacity:0.55;stroke-width:23.55px;"/>
    </g>
    <g transform="matrix(0.901581,0,0,0.867074,395.258,169.752)">
        <path d="M1595.88,2016.15L1595.88,2182.28" style="fill:none;stroke:rgb(182,114,216);stroke-opacity:0.55;stroke-width:23.55px;"/>
    </g>
    <g transform="matrix(0.901581,0,0,0.867074,395.258,-1272.34)">
        <path d="M1595.88,2016.15L1595.88,2182.28" style="fill:none;stroke:rgb(114,216,198);stroke-opacity:0.55;stroke-width:23.55px;"/>
    </g>
</svg>
